# xmcd
#
# Track frame offsets:
#	150
#	13585
#	25690
#	39477
#	49807
#	64760
#	79640
#	91658
#	105092
#	120110
#	135000
#	146477
#	157372
#	173189
#
# Disc length: 2566 seconds
# Revision: 2
# Processed by: cddbd v1.5.2PL0 Copyright (c) Steve Scherf et al.
# Submitted via: dBpowerAMP V12.0
#
DISCID=9c0a040e
DTITLE=Williams and Clark Expedition - Brand New Set Of Blues
DYEAR=2003
DGENRE=Bluegrass
TTITLE0=Brand New Set Of Blues
TTITLE1=Destiny's Highway
TTITLE2=In My Heart
TTITLE3=Jalapeño Quickstep
TTITLE4=(Love Is Coming) To A Heart Near You
TTITLE5=Marching
TTITLE6=Ridin' That Midnight Train
TTITLE7=Goodbye Heartache (Hello You)
TTITLE8=Lifetime Of Love
TTITLE9=Heaven On Earth
TTITLE10=Highlands Ramble
TTITLE11=Travelin' Heaven's Road
TTITLE12=Tennessee Waltz
TTITLE13=Bonus Comedy Track
EXTD=
EXTT0=
EXTT1=
EXTT2=
EXTT3=
EXTT4=
EXTT5=
EXTT6=
EXTT7=
EXTT8=
EXTT9=
EXTT10=
EXTT11=
EXTT12=
EXTT13=
PLAYORDER=
